<svg width="20" height="20" viewBox="0 0 20 20" fill="none" xmlns="http://www.w3.org/2000/svg">
<path fill-rule="evenodd" clip-rule="evenodd" d="M10.0744 19.4174C4.73844 19.4174 0.398438 15.0764 0.398438 9.74143C0.398438 4.40543 4.73844 0.0654297 10.0744 0.0654297C15.4104 0.0654297 19.7504 4.40543 19.7504 9.74143C19.7504 15.0764 15.4104 19.4174 10.0744 19.4174ZM10.0744 1.38343C5.46644 1.38343 1.71644 5.13243 1.71644 9.74143C1.71644 14.3494 5.46644 18.0984 10.0744 18.0984C14.6834 18.0984 18.4324 14.3494 18.4324 9.74143C18.4324 5.13243 14.6834 1.38343 10.0744 1.38343Z" fill="#001C3E"/>
<path fill-rule="evenodd" clip-rule="evenodd" d="M12.6283 10.1837H7.51926C7.39726 10.1837 7.28626 10.1167 7.22926 10.0107C7.17126 9.90374 7.17726 9.77374 7.24326 9.67274L9.79825 5.80574C9.92125 5.62074 10.2263 5.62074 10.3483 5.80574L12.9033 9.67274C12.9703 9.77374 12.9763 9.90374 12.9193 10.0107C12.8613 10.1167 12.7493 10.1837 12.6283 10.1837ZM8.13225 9.52474H12.0153L10.0733 6.58474L8.13225 9.52474Z" fill="#001C3E"/>
<path fill-rule="evenodd" clip-rule="evenodd" d="M10.0754 14.0514C9.96437 14.0514 9.86137 13.9964 9.80037 13.9034L7.24537 10.0364C7.17937 9.93439 7.17337 9.80539 7.23037 9.69839C7.28737 9.59139 7.39937 9.52539 7.52037 9.52539H12.6304C12.7514 9.52539 12.8634 9.59139 12.9204 9.69839C12.9784 9.80539 12.9714 9.93439 12.9054 10.0364L10.3504 13.9034C10.2894 13.9964 10.1864 14.0514 10.0754 14.0514ZM8.13337 10.1844L10.0754 13.1234L12.0174 10.1844H8.13337Z" fill="#001C3E"/>
<path fill-rule="evenodd" clip-rule="evenodd" d="M12.2317 15.6429H7.9167C6.3617 15.6429 5.0957 14.3769 5.0957 12.8219V6.65987C5.0957 5.10487 6.3617 3.83887 7.9167 3.83887H12.2317C13.7877 3.83887 15.0537 5.10487 15.0537 6.65987V12.8219C15.0537 14.3769 13.7877 15.6429 12.2317 15.6429ZM7.9167 4.49787C6.7247 4.49787 5.7547 5.46787 5.7547 6.65987V12.8219C5.7547 14.0139 6.7247 14.9839 7.9167 14.9839H12.2317C13.4237 14.9839 14.3937 14.0139 14.3937 12.8219V6.65987C14.3937 5.46787 13.4237 4.49787 12.2317 4.49787H7.9167Z" fill="#001C3E"/>
</svg>
